<svg fill="none" height="100%" width="100%" viewBox="0 0 1080 1376" xmlns:xlink="http://www.w3.org/1999/xlink" xmlns="http://www.w3.org/2000/svg"><defs><linearGradient id="i0" gradientUnits="userSpaceOnUse" spreadMethod="pad" x2="100" y2="0" x1="0" y1="0"><stop offset="0%" stop-color="#ff7200" /><stop offset="50%" stop-color="#dd3979" /><stop offset="100%" stop-color="#bb00f1" /></linearGradient><linearGradient id="i1" gradientUnits="userSpaceOnUse" spreadMethod="pad" x2="100" y2="0" x1="0" y1="0"><stop offset="0%" stop-color="#ff7200" /><stop offset="50%" stop-color="#dd3979" /><stop offset="100%" stop-color="#bb00f1" /></linearGradient></defs><g transform="matrix(1,0,0,1,544,684)" id="i2"><g id="i3" transform="matrix(1,0,0,1,-14,40)"><rect ry="44" rx="44" height="536" width="540" y="-268" x="-270" stroke-width="0" stroke="#0668b2" fill="#2867b2" /></g></g><g transform="matrix(1.4,0,0,1.4,452,824)" id="i4"><g id="i5"><g transform="translate(190.573,61.641)"><g transform="scale(0.708,0.708)"><animateTransform repeatCount="indefinite" type="scale" attributeName="transform" dur="4.16s" begin="0s" calcMode="spline" values="0.708 0.708; 0.708 0.708; 0.678 0.758; 0.678 0.748; 0.678 0.748; 0.598 0.808; 0.708 0.708; 0.708 0.708" keyTimes="0; 0.269231; 0.317308; 0.375; 0.711539; 0.75; 0.778846; 1" keySplines="0 0 1 1; 0.167 0.167 0.667 1; 0.333 0 0.667 1; 0 0 1 1; 0.333 0 0.667 1; 0.333 0 0.667 1; 0 0 1 1" fill="freeze" /><g transform="translate(-201.741,-183.584)"><g id="i6"><path stroke-width="0" stroke="url(#i0)" fill="#ffffff" d="M108.25,-75.5C75,-75.75,48,-62.25,31,-33.75C31,-43.25,30,-68.5,30,-68.5C30,-68.5,-46,-68.5,-46,-68.5C-46,-68.5,-46,186,-46,186C-46,186,33.375,186,33.375,186C33.375,186,33.438,75,33.438,50.75C33.438,26.5,41.062,-5.063,79.062,-5.813C117.062,-6.563,121.5,24.5,121.5,51.25C121.5,78,122.313,186.219,122.313,186.219C122.313,186.219,201.75,186.219,201.75,186.219C201.75,186.219,201.75,70.5,201.75,50.5C201.75,30.5,201,-19.5,181,-45C159.31,-72.655,130.249,-75.335,108.25,-75.5Z" /></g></g></g></g></g></g><g transform="matrix(1.4,0,0,1.4,452,824)" id="i4"><g id="i7"><g transform="translate(-47.736,64.097)"><g transform="scale(0.741,0.701)"><animateTransform repeatCount="indefinite" type="scale" attributeName="transform" dur="4.16s" begin="0s" calcMode="spline" values="0.741 0.701; 0.741 0.701; 1.101 0.249; 0.841 0.319; 1.021 0.269; 1.021 0.269; 1.251 0.159; 0.741 0.701; 0.591 0.831; 0.741 0.701; 0.741 0.701" keyTimes="0; 0.25; 0.298077; 0.326923; 0.355769; 0.721154; 0.759615; 0.788462; 0.807692; 0.836538; 1" keySplines="0 0 1 1; 0.167 0.167 0.667 1; 0.333 0 0.833 0.833; 0.167 0.167 0.667 1; 0 0 1 1; 0.329 0 0.833 1; 0.167 0 0.667 1; 0.167 0 0.833 1; 0.167 0 0.833 0.833; 0 0 1 1" fill="freeze" /><g transform="translate(135.821,-187.063)"><g id="i3" transform="matrix(0.938,0,0,1.016,-136.5,57)"><rect height="254" width="81" y="-127" x="-40.5" stroke-width="0" stroke="url(#i1)" fill="#ffffff" /></g></g></g></g></g></g><g transform="matrix(1.4,0,0,1.4,452,824)" id="i4"><g id="i8"><g transform="translate(-48.235,-173.869)"><animateTransform repeatCount="indefinite" type="translate" attributeName="transform" dur="4.16s" begin="0s" calcMode="spline" values="-48.235 -173.869; -48.235 -173.869; -48.235 -31.52; -48.235 -48.602; -48.235 -35.791; -48.235 -35.791; -48.235 -7.321; -48.235 -250.737; -48.235 -173.869; -48.235 -173.869" keyTimes="0; 0.240385; 0.298077; 0.326923; 0.355769; 0.721154; 0.759615; 0.807692; 0.855769; 1" keySplines="0 0 1 1; 0.167 0.167 0.667 1; 0.333 0 0.833 0.833; 0.167 0.167 0.667 1; 0 0 1 1; 0.333 0 0.667 1; 0.333 0 0.283 1; 0.557 0 0.833 0.833; 0 0 1 1" fill="freeze" /><g transform="scale(0.885,0.885)"><animateTransform repeatCount="indefinite" type="scale" attributeName="transform" dur="4.16s" begin="0s" calcMode="spline" values="0.885 0.885; 0.885 0.885; 0.615 0.885; 0.885 0.885; 0.885 0.885" keyTimes="0; 0.759615; 0.788462; 0.836538; 1" keySplines="0 0 1 1; 0 0 1 1; 0 0 1 1; 0 0 1 1" fill="freeze" /><g transform="translate(130,144)"><g id="i9" transform="matrix(1,0,0,1,-130,-145)"><ellipse ry="37" rx="37" cy="0" cx="0" stroke-linecap="round" stroke-width="0" stroke="#0668b2" fill="#ffffff"><animate repeatCount="indefinite" attributeName="fill-opacity" dur="4.16s" begin="0s" fill="freeze" values="1; 1; 0.64; 0.64; 1; 1" keyTimes="0; 0.240385; 0.25; 0.846154; 0.865385; 1" keySplines="0 0 1 1; 0 0 1 1; 0 0 1 1; 0 0 1 1; 0 0 1 1" calcMode="spline" /></ellipse></g></g></g></g></g></g><g transform="matrix(1.4,0,0,1.4,452,824)" opacity="0" id="i4" /></svg>