<svg fill="none" height="100%" width="100%" viewBox="0 0 1000 1000" xmlns:xlink="http://www.w3.org/1999/xlink" xmlns="http://www.w3.org/2000/svg"><defs><clipPath id="i0"><rect height="1000" width="1000" y="0" x="0" /></clipPath><g id="i1"><g id="i2"><g transform="translate(500,500)"><g transform="scale(0.37,0.37)"><animateTransform repeatCount="indefinite" type="scale" attributeName="transform" dur="5.017s" begin="0s" calcMode="spline" values="0.37 0.37; 1 1; 1 1" keyTimes="0; 0.518272; 1" keySplines="0.333 0 0.667 1; 0 0 1 1" fill="freeze" /><g transform="translate(0,0)"><g id="i3"><path d="M-31,-50C-31,-50,75,-50,75,-50C75,-50,34,51,34,51C34,51,-72,51,-72,51C-72,51,-31,-50,-31,-50Z" stroke-width="5" stroke="#ffffff" fill="#7b7b7b" fill-opacity="0"><animate repeatCount="indefinite" attributeName="d" dur="5.017s" begin="0s" calcMode="spline" values="M-31,-50C-31,-50,75,-50,75,-50C75,-50,34,51,34,51C34,51,-72,51,-72,51C-72,51,-31,-50,-31,-50Z; M-202,-220C-202,-220,-96,-220,-96,-220C-96,-220,220,196,220,196C220,196,114,196,114,196C114,196,-202,-220,-202,-220Z; M-202,-220C-202,-220,-96,-220,-96,-220C-96,-220,220,196,220,196C220,196,114,196,114,196C114,196,-202,-220,-202,-220Z" keyTimes="0; 0.627907; 1" keySplines="0.88 0 0 1; 0 0 1 1" fill="freeze" /></path></g></g></g></g></g><g visibility="hidden" id="i4"><animate repeatCount="indefinite" begin="0s" calcMode="discrete" dur="5.017s" values="hidden; visible; visible" keyTimes="0; 0.060004; 1" attributeName="visibility" /><g transform="translate(500,500)"><g transform="scale(0.37,0.37)"><animateTransform repeatCount="indefinite" type="scale" attributeName="transform" dur="5.017s" begin="0s" calcMode="spline" values="0.37 0.37; 0.37 0.37; 1 1; 1 1" keyTimes="0; 0.059801; 0.578073; 1" keySplines="0 0 1 1; 0.333 0 0.667 1; 0 0 1 1" fill="freeze" /><g transform="translate(0,0)"><g id="i3"><path d="M-31,-50C-31,-50,75,-50,75,-50C75,-50,34,51,34,51C34,51,-72,51,-72,51C-72,51,-31,-50,-31,-50Z" stroke-width="5" stroke="#ffffff" fill="#7b7b7b" fill-opacity="0"><animate repeatCount="indefinite" attributeName="d" dur="5.017s" begin="0s" calcMode="spline" values="M-31,-50C-31,-50,75,-50,75,-50C75,-50,34,51,34,51C34,51,-72,51,-72,51C-72,51,-31,-50,-31,-50Z; M-31,-50C-31,-50,75,-50,75,-50C75,-50,34,51,34,51C34,51,-72,51,-72,51C-72,51,-31,-50,-31,-50Z; M-202,-220C-202,-220,-96,-220,-96,-220C-96,-220,220,196,220,196C220,196,114,196,114,196C114,196,-202,-220,-202,-220Z; M-202,-220C-202,-220,-96,-220,-96,-220C-96,-220,220,196,220,196C220,196,114,196,114,196C114,196,-202,-220,-202,-220Z" keyTimes="0; 0.059801; 0.687708; 1" keySplines="0 0 1 1; 0.88 0 0 1; 0 0 1 1" fill="freeze" /></path></g></g></g></g></g><g visibility="hidden" id="i5"><animate repeatCount="indefinite" begin="0s" calcMode="discrete" dur="5.017s" values="hidden; visible; visible" keyTimes="0; 0.120008; 1" attributeName="visibility" /><g transform="translate(500,500)"><g transform="scale(0.37,0.37)"><animateTransform repeatCount="indefinite" type="scale" attributeName="transform" dur="5.017s" begin="0s" calcMode="spline" values="0.37 0.37; 0.37 0.37; 1 1; 1 1" keyTimes="0; 0.119601; 0.637874; 1" keySplines="0 0 1 1; 0.333 0 0.667 1; 0 0 1 1" fill="freeze" /><g transform="translate(0,0)"><g id="i3"><path d="M-31,-50C-31,-50,75,-50,75,-50C75,-50,34,51,34,51C34,51,-72,51,-72,51C-72,51,-31,-50,-31,-50Z" stroke-width="5" stroke="#ffffff" fill="#7b7b7b" fill-opacity="0"><animate repeatCount="indefinite" attributeName="d" dur="5.017s" begin="0s" calcMode="spline" values="M-31,-50C-31,-50,75,-50,75,-50C75,-50,34,51,34,51C34,51,-72,51,-72,51C-72,51,-31,-50,-31,-50Z; M-31,-50C-31,-50,75,-50,75,-50C75,-50,34,51,34,51C34,51,-72,51,-72,51C-72,51,-31,-50,-31,-50Z; M-202,-220C-202,-220,-96,-220,-96,-220C-96,-220,220,196,220,196C220,196,114,196,114,196C114,196,-202,-220,-202,-220Z; M-202,-220C-202,-220,-96,-220,-96,-220C-96,-220,220,196,220,196C220,196,114,196,114,196C114,196,-202,-220,-202,-220Z" keyTimes="0; 0.119601; 0.747508; 1" keySplines="0 0 1 1; 0.88 0 0 1; 0 0 1 1" fill="freeze" /></path></g></g></g></g></g><g visibility="hidden" id="i6"><animate repeatCount="indefinite" begin="0s" calcMode="discrete" dur="5.017s" values="hidden; visible; visible" keyTimes="0; 0.179012; 1" attributeName="visibility" /><g transform="translate(500,500)"><g transform="scale(0.37,0.37)"><animateTransform repeatCount="indefinite" type="scale" attributeName="transform" dur="5.017s" begin="0s" calcMode="spline" values="0.37 0.37; 0.37 0.37; 1 1; 1 1" keyTimes="0; 0.179402; 0.697674; 1" keySplines="0 0 1 1; 0.333 0 0.667 1; 0 0 1 1" fill="freeze" /><g transform="translate(0,0)"><g id="i3"><path d="M-31,-50C-31,-50,75,-50,75,-50C75,-50,34,51,34,51C34,51,-72,51,-72,51C-72,51,-31,-50,-31,-50Z" stroke-width="5" stroke="#ffffff" fill="#7b7b7b" fill-opacity="0"><animate repeatCount="indefinite" attributeName="d" dur="5.017s" begin="0s" calcMode="spline" values="M-31,-50C-31,-50,75,-50,75,-50C75,-50,34,51,34,51C34,51,-72,51,-72,51C-72,51,-31,-50,-31,-50Z; M-31,-50C-31,-50,75,-50,75,-50C75,-50,34,51,34,51C34,51,-72,51,-72,51C-72,51,-31,-50,-31,-50Z; M-202,-220C-202,-220,-96,-220,-96,-220C-96,-220,220,196,220,196C220,196,114,196,114,196C114,196,-202,-220,-202,-220Z; M-202,-220C-202,-220,-96,-220,-96,-220C-96,-220,220,196,220,196C220,196,114,196,114,196C114,196,-202,-220,-202,-220Z" keyTimes="0; 0.179402; 0.807309; 1" keySplines="0 0 1 1; 0.88 0 0 1; 0 0 1 1" fill="freeze" /></path></g></g></g></g></g><g visibility="hidden" id="i7"><animate repeatCount="indefinite" begin="0s" calcMode="discrete" dur="5.017s" values="hidden; visible; visible" keyTimes="0; 0.239016; 1" attributeName="visibility" /><g transform="translate(500,500)"><g transform="scale(0.37,0.37)"><animateTransform repeatCount="indefinite" type="scale" attributeName="transform" dur="5.017s" begin="0s" calcMode="spline" values="0.37 0.37; 0.37 0.37; 1 1; 1 1" keyTimes="0; 0.239203; 0.757475; 1" keySplines="0 0 1 1; 0.333 0 0.667 1; 0 0 1 1" fill="freeze" /><g transform="translate(0,0)"><g id="i3"><path d="M-31,-50C-31,-50,75,-50,75,-50C75,-50,34,51,34,51C34,51,-72,51,-72,51C-72,51,-31,-50,-31,-50Z" stroke-width="5" stroke="#ffffff" fill="#7b7b7b" fill-opacity="0"><animate repeatCount="indefinite" attributeName="d" dur="5.017s" begin="0s" calcMode="spline" values="M-31,-50C-31,-50,75,-50,75,-50C75,-50,34,51,34,51C34,51,-72,51,-72,51C-72,51,-31,-50,-31,-50Z; M-31,-50C-31,-50,75,-50,75,-50C75,-50,34,51,34,51C34,51,-72,51,-72,51C-72,51,-31,-50,-31,-50Z; M-202,-220C-202,-220,-96,-220,-96,-220C-96,-220,220,196,220,196C220,196,114,196,114,196C114,196,-202,-220,-202,-220Z; M-202,-220C-202,-220,-96,-220,-96,-220C-96,-220,220,196,220,196C220,196,114,196,114,196C114,196,-202,-220,-202,-220Z" keyTimes="0; 0.239203; 0.86711; 1" keySplines="0 0 1 1; 0.88 0 0 1; 0 0 1 1" fill="freeze" /></path></g></g></g></g></g><g visibility="hidden" id="i8"><animate repeatCount="indefinite" begin="0s" calcMode="discrete" dur="5.017s" values="hidden; visible; visible" keyTimes="0; 0.29902; 1" attributeName="visibility" /><g transform="translate(500,500)"><g transform="scale(0.37,0.37)"><animateTransform repeatCount="indefinite" type="scale" attributeName="transform" dur="5.017s" begin="0s" calcMode="spline" values="0.37 0.37; 0.37 0.37; 1 1; 1 1" keyTimes="0; 0.299003; 0.817276; 1" keySplines="0 0 1 1; 0.333 0 0.667 1; 0 0 1 1" fill="freeze" /><g transform="translate(0,0)"><g id="i3"><path d="M-31,-50C-31,-50,75,-50,75,-50C75,-50,34,51,34,51C34,51,-72,51,-72,51C-72,51,-31,-50,-31,-50Z" stroke-width="5" stroke="#ffffff" fill="#7b7b7b" fill-opacity="0"><animate repeatCount="indefinite" attributeName="d" dur="5.017s" begin="0s" calcMode="spline" values="M-31,-50C-31,-50,75,-50,75,-50C75,-50,34,51,34,51C34,51,-72,51,-72,51C-72,51,-31,-50,-31,-50Z; M-31,-50C-31,-50,75,-50,75,-50C75,-50,34,51,34,51C34,51,-72,51,-72,51C-72,51,-31,-50,-31,-50Z; M-202,-220C-202,-220,-96,-220,-96,-220C-96,-220,220,196,220,196C220,196,114,196,114,196C114,196,-202,-220,-202,-220Z; M-202,-220C-202,-220,-96,-220,-96,-220C-96,-220,220,196,220,196C220,196,114,196,114,196C114,196,-202,-220,-202,-220Z" keyTimes="0; 0.299003; 0.92691; 1" keySplines="0 0 1 1; 0.88 0 0 1; 0 0 1 1" fill="freeze" /></path></g></g></g></g></g><g visibility="hidden" id="i9"><animate repeatCount="indefinite" begin="0s" calcMode="discrete" dur="5.017s" values="hidden; visible; visible" keyTimes="0; 0.359024; 1" attributeName="visibility" /><g transform="translate(500,500)"><g transform="scale(0.37,0.37)"><animateTransform repeatCount="indefinite" type="scale" attributeName="transform" dur="5.017s" begin="0s" calcMode="spline" values="0.37 0.37; 0.37 0.37; 1 1; 1 1" keyTimes="0; 0.358804; 0.877076; 1" keySplines="0 0 1 1; 0.333 0 0.667 1; 0 0 1 1" fill="freeze" /><g transform="translate(0,0)"><g id="i3"><path d="M-31,-50C-31,-50,75,-50,75,-50C75,-50,34,51,34,51C34,51,-72,51,-72,51C-72,51,-31,-50,-31,-50Z" stroke-width="5" stroke="#ffffff" fill="#7b7b7b" fill-opacity="0"><animate repeatCount="indefinite" attributeName="d" dur="5.017s" begin="0s" calcMode="spline" values="M-31,-50C-31,-50,75,-50,75,-50C75,-50,34,51,34,51C34,51,-72,51,-72,51C-72,51,-31,-50,-31,-50Z; M-31,-50C-31,-50,75,-50,75,-50C75,-50,34,51,34,51C34,51,-72,51,-72,51C-72,51,-31,-50,-31,-50Z; M-202,-220C-202,-220,-96,-220,-96,-220C-96,-220,220,196,220,196C220,196,114,196,114,196C114,196,-202,-220,-202,-220Z; M-202,-220C-202,-220,-96,-220,-96,-220C-96,-220,220,196,220,196C220,196,114,196,114,196C114,196,-202,-220,-202,-220Z" keyTimes="0; 0.358804; 0.986711; 1" keySplines="0 0 1 1; 0.88 0 0 1; 0 0 1 1" fill="freeze" /></path></g></g></g></g></g><g visibility="hidden" id="i10"><animate repeatCount="indefinite" begin="0s" calcMode="discrete" dur="5.017s" values="hidden; visible; visible" keyTimes="0; 0.419028; 1" attributeName="visibility" /><g transform="translate(500,500)"><g transform="scale(0.37,0.37)"><animateTransform repeatCount="indefinite" type="scale" attributeName="transform" dur="5.017s" begin="0s" calcMode="spline" values="0.37 0.37; 0.37 0.37; 1 1; 1 1" keyTimes="0; 0.418605; 0.936877; 1" keySplines="0 0 1 1; 0.333 0 0.667 1; 0 0 1 1" fill="freeze" /><g transform="translate(0,0)"><g id="i3"><path d="M-31,-50C-31,-50,75,-50,75,-50C75,-50,34,51,34,51C34,51,-72,51,-72,51C-72,51,-31,-50,-31,-50Z" stroke-width="5" stroke="#ffffff" fill="#7b7b7b" fill-opacity="0"><animate repeatCount="indefinite" attributeName="d" dur="5.017s" begin="0s" calcMode="spline" values="M-31,-50C-31,-50,75,-50,75,-50C75,-50,34,51,34,51C34,51,-72,51,-72,51C-72,51,-31,-50,-31,-50Z; M-31,-50C-31,-50,75,-50,75,-50C75,-50,34,51,34,51C34,51,-72,51,-72,51C-72,51,-31,-50,-31,-50Z; M-202,-220C-202,-220,-96,-220,-96,-220C-96,-220,220,196,220,196C220,196,114,196,114,196C114,196,-202,-220,-202,-220Z" keyTimes="0; 0.418605; 1" keySplines="0 0 1 1; 0.88 0 0 1" fill="freeze" /></path></g></g></g></g></g></g><filter id="i11"><feColorMatrix values="0 0 0 0 1 0 0 0 0 1 0 0 0 0 1 0 0 0 1 0" type="matrix" /></filter><mask height="20000" width="20000" y="-10000" x="-10000" maskContentUnits="userSpaceOnUse" maskUnits="userSpaceOnUse" style="mask-type: alpha" mask-type="alpha" id="i12"><g transform="matrix(1,0,0,1,0,0)"><g filter="url(#i11)" transform="matrix(1,0,0,1,500,500)"><g id="i3" fill="#ff0000"><path d="M-31,-50C-31,-50,75,-50,75,-50C75,-50,34,51,34,51C34,51,-72,51,-72,51C-72,51,-31,-50,-31,-50Z" stroke-width="35" stroke="#ffffff" fill="#7b7b7b" fill-opacity="0"><animate repeatCount="indefinite" attributeName="d" dur="5.017s" begin="0s" calcMode="spline" values="M-31,-50C-31,-50,75,-50,75,-50C75,-50,34,51,34,51C34,51,-72,51,-72,51C-72,51,-31,-50,-31,-50Z; M-202,-220C-202,-220,-96,-220,-96,-220C-96,-220,220,196,220,196C220,196,114,196,114,196C114,196,-202,-220,-202,-220Z; M-202,-220C-202,-220,-96,-220,-96,-220C-96,-220,220,196,220,196C220,196,114,196,114,196C114,196,-202,-220,-202,-220Z" keyTimes="0; 0.627907; 1" keySplines="0.88 0 0 1; 0 0 1 1" fill="freeze" /></path></g></g></g></mask></defs><g transform="matrix(1,0,0,1,500,500)" id="i13"><g id="i3" fill="#000000"><rect height="1000" width="1000" y="-500" x="-500" stroke-width="5" stroke="#000000" fill="#000000" fill-opacity="0" /></g></g><g mask="url(#i12)" transform="matrix(1,0,0,1,0,0)" id="i14"><g clip-path="url(#i0)"><g><g transform="translate(500,500)"><g transform="scale(0.37,0.37)"><animateTransform repeatCount="indefinite" type="scale" attributeName="transform" dur="5.017s" begin="0s" calcMode="spline" values="0.37 0.37; 1 1; 1 1" keyTimes="0; 0.518272; 1" keySplines="0.333 0 0.667 1; 0 0 1 1" fill="freeze" /><g transform="translate(0,0)"><g><path d="M-31,-50C-31,-50,75,-50,75,-50C75,-50,34,51,34,51C34,51,-72,51,-72,51C-72,51,-31,-50,-31,-50Z" stroke-width="5" stroke="#ffffff" fill="#7b7b7b" fill-opacity="0"><animate repeatCount="indefinite" attributeName="d" dur="5.017s" begin="0s" calcMode="spline" values="M-31,-50C-31,-50,75,-50,75,-50C75,-50,34,51,34,51C34,51,-72,51,-72,51C-72,51,-31,-50,-31,-50Z; M-202,-220C-202,-220,-96,-220,-96,-220C-96,-220,220,196,220,196C220,196,114,196,114,196C114,196,-202,-220,-202,-220Z; M-202,-220C-202,-220,-96,-220,-96,-220C-96,-220,220,196,220,196C220,196,114,196,114,196C114,196,-202,-220,-202,-220Z" keyTimes="0; 0.627907; 1" keySplines="0.88 0 0 1; 0 0 1 1" fill="freeze" /></path></g></g></g></g></g><g visibility="hidden"><animate repeatCount="indefinite" begin="0s" calcMode="discrete" dur="5.017s" values="hidden; visible; visible" keyTimes="0; 0.060004; 1" attributeName="visibility" /><g transform="translate(500,500)"><g transform="scale(0.37,0.37)"><animateTransform repeatCount="indefinite" type="scale" attributeName="transform" dur="5.017s" begin="0s" calcMode="spline" values="0.37 0.37; 0.37 0.37; 1 1; 1 1" keyTimes="0; 0.059801; 0.578073; 1" keySplines="0 0 1 1; 0.333 0 0.667 1; 0 0 1 1" fill="freeze" /><g transform="translate(0,0)"><g><path d="M-31,-50C-31,-50,75,-50,75,-50C75,-50,34,51,34,51C34,51,-72,51,-72,51C-72,51,-31,-50,-31,-50Z" stroke-width="5" stroke="#ffffff" fill="#7b7b7b" fill-opacity="0"><animate repeatCount="indefinite" attributeName="d" dur="5.017s" begin="0s" calcMode="spline" values="M-31,-50C-31,-50,75,-50,75,-50C75,-50,34,51,34,51C34,51,-72,51,-72,51C-72,51,-31,-50,-31,-50Z; M-31,-50C-31,-50,75,-50,75,-50C75,-50,34,51,34,51C34,51,-72,51,-72,51C-72,51,-31,-50,-31,-50Z; M-202,-220C-202,-220,-96,-220,-96,-220C-96,-220,220,196,220,196C220,196,114,196,114,196C114,196,-202,-220,-202,-220Z; M-202,-220C-202,-220,-96,-220,-96,-220C-96,-220,220,196,220,196C220,196,114,196,114,196C114,196,-202,-220,-202,-220Z" keyTimes="0; 0.059801; 0.687708; 1" keySplines="0 0 1 1; 0.88 0 0 1; 0 0 1 1" fill="freeze" /></path></g></g></g></g></g><g visibility="hidden"><animate repeatCount="indefinite" begin="0s" calcMode="discrete" dur="5.017s" values="hidden; visible; visible" keyTimes="0; 0.120008; 1" attributeName="visibility" /><g transform="translate(500,500)"><g transform="scale(0.37,0.37)"><animateTransform repeatCount="indefinite" type="scale" attributeName="transform" dur="5.017s" begin="0s" calcMode="spline" values="0.37 0.37; 0.37 0.37; 1 1; 1 1" keyTimes="0; 0.119601; 0.637874; 1" keySplines="0 0 1 1; 0.333 0 0.667 1; 0 0 1 1" fill="freeze" /><g transform="translate(0,0)"><g><path d="M-31,-50C-31,-50,75,-50,75,-50C75,-50,34,51,34,51C34,51,-72,51,-72,51C-72,51,-31,-50,-31,-50Z" stroke-width="5" stroke="#ffffff" fill="#7b7b7b" fill-opacity="0"><animate repeatCount="indefinite" attributeName="d" dur="5.017s" begin="0s" calcMode="spline" values="M-31,-50C-31,-50,75,-50,75,-50C75,-50,34,51,34,51C34,51,-72,51,-72,51C-72,51,-31,-50,-31,-50Z; M-31,-50C-31,-50,75,-50,75,-50C75,-50,34,51,34,51C34,51,-72,51,-72,51C-72,51,-31,-50,-31,-50Z; M-202,-220C-202,-220,-96,-220,-96,-220C-96,-220,220,196,220,196C220,196,114,196,114,196C114,196,-202,-220,-202,-220Z; M-202,-220C-202,-220,-96,-220,-96,-220C-96,-220,220,196,220,196C220,196,114,196,114,196C114,196,-202,-220,-202,-220Z" keyTimes="0; 0.119601; 0.747508; 1" keySplines="0 0 1 1; 0.88 0 0 1; 0 0 1 1" fill="freeze" /></path></g></g></g></g></g><g visibility="hidden"><animate repeatCount="indefinite" begin="0s" calcMode="discrete" dur="5.017s" values="hidden; visible; visible" keyTimes="0; 0.179012; 1" attributeName="visibility" /><g transform="translate(500,500)"><g transform="scale(0.37,0.37)"><animateTransform repeatCount="indefinite" type="scale" attributeName="transform" dur="5.017s" begin="0s" calcMode="spline" values="0.37 0.37; 0.37 0.37; 1 1; 1 1" keyTimes="0; 0.179402; 0.697674; 1" keySplines="0 0 1 1; 0.333 0 0.667 1; 0 0 1 1" fill="freeze" /><g transform="translate(0,0)"><g><path d="M-31,-50C-31,-50,75,-50,75,-50C75,-50,34,51,34,51C34,51,-72,51,-72,51C-72,51,-31,-50,-31,-50Z" stroke-width="5" stroke="#ffffff" fill="#7b7b7b" fill-opacity="0"><animate repeatCount="indefinite" attributeName="d" dur="5.017s" begin="0s" calcMode="spline" values="M-31,-50C-31,-50,75,-50,75,-50C75,-50,34,51,34,51C34,51,-72,51,-72,51C-72,51,-31,-50,-31,-50Z; M-31,-50C-31,-50,75,-50,75,-50C75,-50,34,51,34,51C34,51,-72,51,-72,51C-72,51,-31,-50,-31,-50Z; M-202,-220C-202,-220,-96,-220,-96,-220C-96,-220,220,196,220,196C220,196,114,196,114,196C114,196,-202,-220,-202,-220Z; M-202,-220C-202,-220,-96,-220,-96,-220C-96,-220,220,196,220,196C220,196,114,196,114,196C114,196,-202,-220,-202,-220Z" keyTimes="0; 0.179402; 0.807309; 1" keySplines="0 0 1 1; 0.88 0 0 1; 0 0 1 1" fill="freeze" /></path></g></g></g></g></g><g visibility="hidden"><animate repeatCount="indefinite" begin="0s" calcMode="discrete" dur="5.017s" values="hidden; visible; visible" keyTimes="0; 0.239016; 1" attributeName="visibility" /><g transform="translate(500,500)"><g transform="scale(0.37,0.37)"><animateTransform repeatCount="indefinite" type="scale" attributeName="transform" dur="5.017s" begin="0s" calcMode="spline" values="0.37 0.37; 0.37 0.37; 1 1; 1 1" keyTimes="0; 0.239203; 0.757475; 1" keySplines="0 0 1 1; 0.333 0 0.667 1; 0 0 1 1" fill="freeze" /><g transform="translate(0,0)"><g><path d="M-31,-50C-31,-50,75,-50,75,-50C75,-50,34,51,34,51C34,51,-72,51,-72,51C-72,51,-31,-50,-31,-50Z" stroke-width="5" stroke="#ffffff" fill="#7b7b7b" fill-opacity="0"><animate repeatCount="indefinite" attributeName="d" dur="5.017s" begin="0s" calcMode="spline" values="M-31,-50C-31,-50,75,-50,75,-50C75,-50,34,51,34,51C34,51,-72,51,-72,51C-72,51,-31,-50,-31,-50Z; M-31,-50C-31,-50,75,-50,75,-50C75,-50,34,51,34,51C34,51,-72,51,-72,51C-72,51,-31,-50,-31,-50Z; M-202,-220C-202,-220,-96,-220,-96,-220C-96,-220,220,196,220,196C220,196,114,196,114,196C114,196,-202,-220,-202,-220Z; M-202,-220C-202,-220,-96,-220,-96,-220C-96,-220,220,196,220,196C220,196,114,196,114,196C114,196,-202,-220,-202,-220Z" keyTimes="0; 0.239203; 0.86711; 1" keySplines="0 0 1 1; 0.88 0 0 1; 0 0 1 1" fill="freeze" /></path></g></g></g></g></g><g visibility="hidden"><animate repeatCount="indefinite" begin="0s" calcMode="discrete" dur="5.017s" values="hidden; visible; visible" keyTimes="0; 0.29902; 1" attributeName="visibility" /><g transform="translate(500,500)"><g transform="scale(0.37,0.37)"><animateTransform repeatCount="indefinite" type="scale" attributeName="transform" dur="5.017s" begin="0s" calcMode="spline" values="0.37 0.37; 0.37 0.37; 1 1; 1 1" keyTimes="0; 0.299003; 0.817276; 1" keySplines="0 0 1 1; 0.333 0 0.667 1; 0 0 1 1" fill="freeze" /><g transform="translate(0,0)"><g><path d="M-31,-50C-31,-50,75,-50,75,-50C75,-50,34,51,34,51C34,51,-72,51,-72,51C-72,51,-31,-50,-31,-50Z" stroke-width="5" stroke="#ffffff" fill="#7b7b7b" fill-opacity="0"><animate repeatCount="indefinite" attributeName="d" dur="5.017s" begin="0s" calcMode="spline" values="M-31,-50C-31,-50,75,-50,75,-50C75,-50,34,51,34,51C34,51,-72,51,-72,51C-72,51,-31,-50,-31,-50Z; M-31,-50C-31,-50,75,-50,75,-50C75,-50,34,51,34,51C34,51,-72,51,-72,51C-72,51,-31,-50,-31,-50Z; M-202,-220C-202,-220,-96,-220,-96,-220C-96,-220,220,196,220,196C220,196,114,196,114,196C114,196,-202,-220,-202,-220Z; M-202,-220C-202,-220,-96,-220,-96,-220C-96,-220,220,196,220,196C220,196,114,196,114,196C114,196,-202,-220,-202,-220Z" keyTimes="0; 0.299003; 0.92691; 1" keySplines="0 0 1 1; 0.88 0 0 1; 0 0 1 1" fill="freeze" /></path></g></g></g></g></g><g visibility="hidden"><animate repeatCount="indefinite" begin="0s" calcMode="discrete" dur="5.017s" values="hidden; visible; visible" keyTimes="0; 0.359024; 1" attributeName="visibility" /><g transform="translate(500,500)"><g transform="scale(0.37,0.37)"><animateTransform repeatCount="indefinite" type="scale" attributeName="transform" dur="5.017s" begin="0s" calcMode="spline" values="0.37 0.37; 0.37 0.37; 1 1; 1 1" keyTimes="0; 0.358804; 0.877076; 1" keySplines="0 0 1 1; 0.333 0 0.667 1; 0 0 1 1" fill="freeze" /><g transform="translate(0,0)"><g><path d="M-31,-50C-31,-50,75,-50,75,-50C75,-50,34,51,34,51C34,51,-72,51,-72,51C-72,51,-31,-50,-31,-50Z" stroke-width="5" stroke="#ffffff" fill="#7b7b7b" fill-opacity="0"><animate repeatCount="indefinite" attributeName="d" dur="5.017s" begin="0s" calcMode="spline" values="M-31,-50C-31,-50,75,-50,75,-50C75,-50,34,51,34,51C34,51,-72,51,-72,51C-72,51,-31,-50,-31,-50Z; M-31,-50C-31,-50,75,-50,75,-50C75,-50,34,51,34,51C34,51,-72,51,-72,51C-72,51,-31,-50,-31,-50Z; M-202,-220C-202,-220,-96,-220,-96,-220C-96,-220,220,196,220,196C220,196,114,196,114,196C114,196,-202,-220,-202,-220Z; M-202,-220C-202,-220,-96,-220,-96,-220C-96,-220,220,196,220,196C220,196,114,196,114,196C114,196,-202,-220,-202,-220Z" keyTimes="0; 0.358804; 0.986711; 1" keySplines="0 0 1 1; 0.88 0 0 1; 0 0 1 1" fill="freeze" /></path></g></g></g></g></g><g visibility="hidden"><animate repeatCount="indefinite" begin="0s" calcMode="discrete" dur="5.017s" values="hidden; visible; visible" keyTimes="0; 0.419028; 1" attributeName="visibility" /><g transform="translate(500,500)"><g transform="scale(0.37,0.37)"><animateTransform repeatCount="indefinite" type="scale" attributeName="transform" dur="5.017s" begin="0s" calcMode="spline" values="0.37 0.37; 0.37 0.37; 1 1; 1 1" keyTimes="0; 0.418605; 0.936877; 1" keySplines="0 0 1 1; 0.333 0 0.667 1; 0 0 1 1" fill="freeze" /><g transform="translate(0,0)"><g><path d="M-31,-50C-31,-50,75,-50,75,-50C75,-50,34,51,34,51C34,51,-72,51,-72,51C-72,51,-31,-50,-31,-50Z" stroke-width="5" stroke="#ffffff" fill="#7b7b7b" fill-opacity="0"><animate repeatCount="indefinite" attributeName="d" dur="5.017s" begin="0s" calcMode="spline" values="M-31,-50C-31,-50,75,-50,75,-50C75,-50,34,51,34,51C34,51,-72,51,-72,51C-72,51,-31,-50,-31,-50Z; M-31,-50C-31,-50,75,-50,75,-50C75,-50,34,51,34,51C34,51,-72,51,-72,51C-72,51,-31,-50,-31,-50Z; M-202,-220C-202,-220,-96,-220,-96,-220C-96,-220,220,196,220,196C220,196,114,196,114,196C114,196,-202,-220,-202,-220Z" keyTimes="0; 0.418605; 1" keySplines="0 0 1 1; 0.88 0 0 1" fill="freeze" /></path></g></g></g></g></g></g></g><g display="none" transform="matrix(1,0,0,1,500,500)" id="i15"><g id="i3" fill="#ff0000"><path d="M-31,-50C-31,-50,75,-50,75,-50C75,-50,34,51,34,51C34,51,-72,51,-72,51C-72,51,-31,-50,-31,-50Z" stroke-width="35" stroke="#ffffff" fill="#7b7b7b" fill-opacity="0"><animate repeatCount="indefinite" attributeName="d" dur="5.017s" begin="0s" calcMode="spline" values="M-31,-50C-31,-50,75,-50,75,-50C75,-50,34,51,34,51C34,51,-72,51,-72,51C-72,51,-31,-50,-31,-50Z; M-202,-220C-202,-220,-96,-220,-96,-220C-96,-220,220,196,220,196C220,196,114,196,114,196C114,196,-202,-220,-202,-220Z; M-202,-220C-202,-220,-96,-220,-96,-220C-96,-220,220,196,220,196C220,196,114,196,114,196C114,196,-202,-220,-202,-220Z" keyTimes="0; 0.627907; 1" keySplines="0.88 0 0 1; 0 0 1 1" fill="freeze" /></path></g></g><g transform="matrix(1,0,0,1,500,500)" id="i16"><g id="i3"><path d="M-31,-50C-31,-50,75,-50,75,-50C75,-50,34,51,34,51C34,51,-72,51,-72,51C-72,51,-31,-50,-31,-50Z" stroke-width="35" stroke="#ffffff" fill="#7b7b7b" fill-opacity="0"><animate repeatCount="indefinite" attributeName="d" dur="5.017s" begin="0s" calcMode="spline" values="M-31,-50C-31,-50,75,-50,75,-50C75,-50,34,51,34,51C34,51,-72,51,-72,51C-72,51,-31,-50,-31,-50Z; M-202,-220C-202,-220,-96,-220,-96,-220C-96,-220,220,196,220,196C220,196,114,196,114,196C114,196,-202,-220,-202,-220Z; M-202,-220C-202,-220,-96,-220,-96,-220C-96,-220,220,196,220,196C220,196,114,196,114,196C114,196,-202,-220,-202,-220Z" keyTimes="0; 0.627907; 1" keySplines="0.88 0 0 1; 0 0 1 1" fill="freeze" /></path></g></g><g transform="matrix(1,0,0,1,500,500)" id="i17"><g id="i3"><path d="M63.75,-49.75C63.75,-49.75,58.75,-49.75,58.75,-49.75C58.75,-49.75,56.25,-47,56.25,-47C56.25,-47,58.75,-43.5,58.75,-43.5C58.75,-43.5,63.75,-49.75,63.75,-49.75Z" stroke-width="24" stroke="#ffffff" fill="#7b7b7b" fill-opacity="0"><animate repeatCount="indefinite" attributeName="d" dur="5.017s" begin="0s" calcMode="spline" values="M63.75,-49.75C63.75,-49.75,58.75,-49.75,58.75,-49.75C58.75,-49.75,56.25,-47,56.25,-47C56.25,-47,58.75,-43.5,58.75,-43.5C58.75,-43.5,63.75,-49.75,63.75,-49.75Z; M199,-220C199,-220,194,-220,194,-220C194,-220,43.5,-59,43.5,-59C43.5,-59,46,-55.5,46,-55.5C46,-55.5,199,-220,199,-220Z; M199,-220C199,-220,194,-220,194,-220C194,-220,43.5,-59,43.5,-59C43.5,-59,46,-55.5,46,-55.5C46,-55.5,199,-220,199,-220Z" keyTimes="0; 0.647841; 1" keySplines="0.88 0 0 1; 0 0 1 1" fill="freeze" /></path></g></g><g transform="matrix(-1,0,0,-1,509,473)" id="i18"><g id="i3"><path d="M68.75,-76.75C68.75,-76.75,65.25,-80.25,65.25,-80.25C65.25,-80.25,60.75,-78,60.75,-78C60.75,-78,63.5,-74.75,63.5,-74.75C63.5,-74.75,68.75,-76.75,68.75,-76.75Z" stroke-width="24" stroke="#ffffff" fill="#7b7b7b" fill-opacity="0"><animate repeatCount="indefinite" attributeName="d" dur="5.017s" begin="0s" calcMode="spline" values="M68.75,-76.75C68.75,-76.75,65.25,-80.25,65.25,-80.25C65.25,-80.25,60.75,-78,60.75,-78C60.75,-78,63.5,-74.75,63.5,-74.75C63.5,-74.75,68.75,-76.75,68.75,-76.75Z; M203.5,-223C203.5,-223,198.5,-223,198.5,-223C198.5,-223,43,-56.5,43,-56.5C43,-56.5,46,-53,46,-53C46,-53,203.5,-223,203.5,-223Z; M203.5,-223C203.5,-223,198.5,-223,198.5,-223C198.5,-223,43,-56.5,43,-56.5C43,-56.5,46,-53,46,-53C46,-53,203.5,-223,203.5,-223Z" keyTimes="0; 0.607973; 1" keySplines="0.88 0 0 1; 0 0 1 1" fill="freeze" /></path></g></g></svg>