<svg fill="none" height="100%" width="100%" viewBox="0 0 500 500" xmlns:xlink="http://www.w3.org/1999/xlink" xmlns="http://www.w3.org/2000/svg"><g visibility="hidden" id="i0"><g transform="translate(249.567,249.865)"><g transform="rotate(0)"><animateTransform repeatCount="indefinite" type="rotate" attributeName="transform" dur="2.667s" begin="0s" calcMode="spline" values="0; 0; -8; 8; 0; 0" keyTimes="0; 0.05; 0.3; 0.55; 0.8; 1" keySplines="0 0 1 1; 0.5 0 0.5 1; 0.5 0 0.5 1; 0.5 0 0.5 1; 0 0 1 1" fill="freeze" /><g transform="scale(1,1)"><animateTransform repeatCount="indefinite" type="scale" attributeName="transform" dur="2.667s" begin="0s" calcMode="spline" values="1 1; 0.85 0.85; 1.15 1.15; 1 1; 1 1" keyTimes="0; 0.25; 0.5; 0.75; 1" keySplines="0.5 0 0.5 1; 0.5 0 0.5 1; 0.5 0 0.5 1; 0 0 1 1" fill="freeze" /><g transform="translate(-150.25,-150.25)"><g id="i1" transform="matrix(1,0,0,1,150.25,150.25)"><path fill="#ffffff" d="M100,150C100,150,-100,150,-100,150C-127.614,150,-150,127.614,-150,100C-150,100,-150,-100,-150,-100C-150,-127.615,-127.614,-150,-100,-150C-100,-150,100,-150,100,-150C127.614,-150,150,-127.615,150,-100C150,-100,150,100,150,100C150,127.614,127.614,150,100,150Z" /></g></g></g></g></g></g><g id="i2"><g transform="translate(248.812,249.826)"><g transform="rotate(0)"><animateTransform repeatCount="indefinite" type="rotate" attributeName="transform" dur="2.667s" begin="0s" calcMode="spline" values="0; 0; -8; 8; 0; 0" keyTimes="0; 0.1; 0.35; 0.6; 0.85; 1" keySplines="0 0 1 1; 0.5 0 0.5 1; 0.5 0 0.5 1; 0.5 0 0.5 1; 0 0 1 1" fill="freeze" /><g transform="scale(1,1)"><animateTransform repeatCount="indefinite" type="scale" attributeName="transform" dur="2.667s" begin="0s" calcMode="spline" values="1 1; 1 1; 0.85 0.85; 1.15 1.15; 1 1; 1 1" keyTimes="0; 0.05; 0.3; 0.55; 0.8; 1" keySplines="0 0 1 1; 0.5 0 0.5 1; 0.5 0 0.5 1; 0.5 0 0.5 1; 0 0 1 1" fill="freeze" /><g transform="translate(-101.006,-71.122)"><g id="i1" transform="matrix(1,0,0,1,101.006,71.122)"><path fill="#ff0000" d="M100.745,0.083C100.756,0.694,100.755,1.316,100.755,1.928C100.755,18.55,99.245,34.839,96.589,48.983C96.589,48.983,96.544,49.161,96.544,49.161C94.177,57.561,87.643,64.183,79.177,66.628C63.422,70.872,0.844,70.872,0.844,70.872C0.844,70.872,-61.911,70.872,-77.488,66.628C-77.488,66.628,-77.655,66.583,-77.655,66.583C-85.955,64.183,-92.477,57.561,-94.888,48.983C-94.888,48.983,-94.633,50.639,-94.633,50.639C-100.755,18.061,-100.722,-18.495,-94.888,-48.917C-94.888,-48.917,-94.855,-49.095,-94.855,-49.095C-92.477,-57.495,-85.944,-64.105,-77.488,-66.561C-61.744,-70.872,0.844,-70.794,0.844,-70.794C0.844,-70.794,63.577,-70.794,79.177,-66.561C79.177,-66.561,79.344,-66.517,79.344,-66.517C87.643,-64.105,94.166,-57.495,96.577,-48.917C96.577,-48.917,96.333,-50.55,96.333,-50.55C99.244,-34.761,100.755,-18.473,100.755,-1.839C100.755,-1.161,100.756,-0.483,100.745,0.083Z" /></g></g></g></g></g></g><g id="i3"><g transform="translate(255.345,249.865)"><g transform="rotate(0)"><animateTransform repeatCount="indefinite" type="rotate" attributeName="transform" dur="2.667s" begin="0s" calcMode="spline" values="0; 0; -8; 8; 0; 0" keyTimes="0; 0.15; 0.4; 0.65; 0.9; 1" keySplines="0 0 1 1; 0.5 0 0.5 1; 0.5 0 0.5 1; 0.5 0 0.5 1; 0 0 1 1" fill="freeze" /><g transform="scale(1,1)"><animateTransform repeatCount="indefinite" type="scale" attributeName="transform" dur="2.667s" begin="0s" calcMode="spline" values="1 1; 1 1; 0.85 0.85; 1.15 1.15; 1 1; 1 1" keyTimes="0; 0.1; 0.35; 0.6; 0.85; 1" keySplines="0 0 1 1; 0.5 0 0.5 1; 0.5 0 0.5 1; 0.5 0 0.5 1; 0 0 1 1" fill="freeze" /><g transform="translate(-26.02,-30.007)"><g id="i1" transform="matrix(1,0,0,1,26.02,30.007)"><path fill="#ffffff" d="M25.77,0C25.77,0,-25.77,-29.757,-25.77,-29.757C-25.77,-29.757,-25.77,29.757,-25.77,29.757C-25.77,29.757,25.77,0,25.77,0Z" /></g></g></g></g></g></g></svg>